<?xml version="1.0" encoding="utf-8"?>
<!-- Generator: Adobe Illustrator 22.0.0, SVG Export Plug-In . SVG Version: 6.00 Build 0)  -->
<svg version="1.1"
	 id="Layer_1" xmlns:cc="http://creativecommons.org/ns#" xmlns:dc="http://purl.org/dc/elements/1.1/" xmlns:inkscape="http://www.inkscape.org/namespaces/inkscape" xmlns:rdf="http://www.w3.org/1999/02/22-rdf-syntax-ns#" xmlns:sodipodi="http://sodipodi.sourceforge.net/DTD/sodipodi-0.dtd" xmlns:svg="http://www.w3.org/2000/svg"
	 xmlns="http://www.w3.org/2000/svg" xmlns:xlink="http://www.w3.org/1999/xlink" x="0px" y="0px" viewBox="0 0 76 76"
	 style="enable-background:new 0 0 76 76;" xml:space="preserve">
<g transform="translate(0,-952.36218)">
	<path d="M28.994,952.362C13.029,952.362,0,965.391,0,981.356c0,15.966,13.029,28.994,28.994,28.994
		c6.549,0,12.601-2.186,17.465-5.874l22.683,22.714c1.562,1.562,4.125,1.562,5.687,0c1.562-1.562,1.562-4.093,0-5.655
		l-22.714-22.714c3.681-4.862,5.874-10.923,5.874-17.465C57.988,965.391,44.96,952.362,28.994,952.362L28.994,952.362z
		 M28.994,960.361c11.643,0,20.996,9.353,20.996,20.996c0,11.643-9.353,20.996-20.996,20.996c-11.643,0-20.996-9.353-20.996-20.996
		C7.998,969.714,17.351,960.361,28.994,960.361z"/>
</g>
</svg>
