<?xml version="1.0" encoding="utf-8"?>
<!-- Generator: Adobe Illustrator 21.0.2, SVG Export Plug-In . SVG Version: 6.00 Build 0)  -->
<svg version="1.1" xmlns="http://www.w3.org/2000/svg" xmlns:xlink="http://www.w3.org/1999/xlink" x="0px" y="0px"
	 viewBox="0 0 50 50" style="enable-background:new 0 0 50 50;" xml:space="preserve">
<g id="content">
	<g>
		<rect x="2971.547" y="2802.313" style="fill:none;" width="487.879" height="17.816"/>
		<text transform="matrix(1 0 0 1 2971.5474 2814.4854)" style="font-family:'Arial-BoldMT'; font-size:17px;">Value of hogs sold in Illinois</text>
	</g>
	<g>
		<polyline style="fill:none;stroke:#C11B17;" points="3548.225,3215.154 3548.225,3191.154 2971.883,3191.154 2971.883,3215.154 		
			"/>
		<rect x="3214.396" y="3159.154" style="fill:#C11B17;" width="91.316" height="32"/>
	</g>
	<rect x="2971.547" y="3739.817" style="fill:none;" width="717.677" height="27.537"/>
	<text transform="matrix(1 0 0 1 2971.5464 3758.7166)" style="fill:#231F20; font-family:'Georgia-Bold'; font-size:25px;">Hogs have become a $1.5B business in Illinois</text>
	<path style="fill:#C11B17;" d="M3235.087,2221.388c0.272-7.22,0.577-14.646,0.906-22.073c0.426-9.065,2.5-14.929,6.167-17.45
		v-1.032c-3.525-2.517-5.598-8.28-6.164-17.145l-0.979-22.011c-0.961-6.815-3.628-10.128-8.15-10.128l-0.573,0.027
		c2.072,0.453,3.734,1.925,4.945,4.384c1.324,2.685,1.995,6.06,1.995,10.032c0,1.548-0.047,3.891-0.141,6.964
		c-0.093,3.066-0.139,5.406-0.139,6.955c0,9.909,1.725,16.579,5.273,20.387l0.99,1.063l-0.994,1.054
		c-3.594,3.809-5.34,10.476-5.34,20.383c0,1.469,0.057,3.698,0.174,6.815c0.117,3.089,0.177,5.48,0.177,7.105
		c0,3.975-0.684,7.353-2.033,10.041c-1.232,2.453-2.904,3.922-4.976,4.375v0.143
		C3231.089,2231.072,3233.992,2227.829,3235.087,2221.388z"/>
	<path style="fill:#C11B17;" d="M3263.688,2280.367c0.272-3.691,0.577-7.486,0.906-11.283c0.426-4.634,2.5-7.632,6.167-8.92v-0.528
		c-3.525-1.287-5.598-4.233-6.164-8.764l-0.979-11.251c-0.961-3.484-3.628-5.177-8.15-5.177l-0.573,0.014
		c2.072,0.232,3.733,0.984,4.945,2.241c1.323,1.373,1.994,3.098,1.994,5.128c0,0.792-0.047,1.989-0.141,3.56
		c-0.093,1.567-0.139,2.763-0.139,3.555c0,5.065,1.725,8.475,5.273,10.422l0.99,0.543l-0.994,0.539
		c-3.594,1.947-5.34,5.355-5.34,10.419c0,0.751,0.057,1.891,0.174,3.484c0.117,1.579,0.177,2.801,0.177,3.632
		c0,2.032-0.684,3.759-2.033,5.133c-1.232,1.254-2.904,2.005-4.976,2.237v0.073
		C3259.69,2285.318,3262.593,2283.66,3263.688,2280.367z"/>
	<text transform="matrix(1 0 0 1 2843.4868 -590.3146)" style="font-family:'Arial-BoldMT'; font-size:17px;">BLUES</text>
	<text transform="matrix(1 0 0 1 2843.4868 -455.2031)" style="font-family:'Arial-BoldMT'; font-size:17px;">REDS</text>
	<text transform="matrix(1 0 0 1 2843.4868 -320.0915)" style="font-family:'Arial-BoldMT'; font-size:17px;">HOT RAMP</text>
	<text transform="matrix(1 0 0 1 2843.4868 -184.9799)" style="font-family:'Arial-BoldMT'; font-size:17px;">GREENS</text>
	<text transform="matrix(1 0 0 1 2843.4868 -49.8683)" style="font-family:'Arial-BoldMT'; font-size:17px;">YELLOWS</text>
	<text transform="matrix(1 0 0 1 2843.4868 85.2432)" style="font-family:'Arial-BoldMT'; font-size:17px;">OTHER</text>
	<text transform="matrix(1 0 0 1 2843.4868 220.3548)" style="font-family:'Arial-BoldMT'; font-size:17px;">GRAYS</text>
	<text transform="matrix(1 0 0 1 2843.4868 355.4664)" style="font-family:'Arial-BoldMT'; font-size:17px;">HANDY COLORS</text>
	<g>
		<rect x="2971.547" y="3776.728" style="fill:none;" width="578.677" height="75.465"/>
		<text transform="matrix(1 0 0 1 2971.5469 3790.3372)"><tspan x="0" y="0" style="font-family:'Georgia'; font-size:18px;">Lorem ipsum dolor sit amet, consectetur adipisicing elit, sed do eiusmod </tspan><tspan x="0" y="27" style="font-family:'Georgia'; font-size:18px;">tempor incididunt ut labore et dolore magna aliqua. Ut enim ad minim </tspan><tspan x="0" y="54" style="font-family:'Georgia'; font-size:18px;">veniam, quis nostrud exercitation ullamco laboris nisi ut aliquip ex ea </tspan></text>
	</g>
	<g>
		<rect x="2971.547" y="3867.097" style="fill:none;" width="487.879" height="17.816"/>
		<text transform="matrix(1 0 0 1 2971.5474 3880.7009)" style="font-family:'Arial-BoldMT'; font-size:19px;">Value of hogs sold in Illinois</text>
	</g>
	<g>
		<g>
			<g>
				<line style="fill:none;" x1="3012.33" y1="4094.755" x2="3674.223" y2="4094.755"/>
				<g>
					<g>
						<line style="fill:none;" x1="3012.33" y1="4094.755" x2="3012.33" y2="4090.584"/>
						<line style="fill:none;" x1="3095.067" y1="4094.755" x2="3095.067" y2="4090.584"/>
						<line style="fill:none;" x1="3177.803" y1="4094.755" x2="3177.803" y2="4090.584"/>
						<line style="fill:none;" x1="3260.54" y1="4094.755" x2="3260.54" y2="4090.584"/>
						<line style="fill:none;" x1="3343.277" y1="4094.755" x2="3343.277" y2="4090.584"/>
						<line style="fill:none;" x1="3426.013" y1="4094.755" x2="3426.013" y2="4090.584"/>
						<line style="fill:none;" x1="3508.75" y1="4094.755" x2="3508.75" y2="4090.584"/>
						<line style="fill:none;" x1="3591.487" y1="4094.755" x2="3591.487" y2="4090.584"/>
						<line style="fill:none;" x1="3674.223" y1="4094.755" x2="3674.223" y2="4090.584"/>
					</g>
					<g>
					</g>
				</g>
			</g>
			<g>
				<g>
					<text transform="matrix(1 0 0 1 2996.7058 4098.3169)" style="fill:none; font-family:'ArialMT'; font-size:9.4992px;">0</text>
					<text transform="matrix(1 0 0 1 2954.4421 4056.6108)" style="fill:none; font-family:'ArialMT'; font-size:9.4992px;">500000000</text>
					<text transform="matrix(1 0 0 1 2949.1589 4014.9058)" style="fill:none; font-family:'ArialMT'; font-size:9.4992px;">1000000000</text>
					<text transform="matrix(1 0 0 1 2949.1589 3973.1997)" style="fill:none; font-family:'ArialMT'; font-size:9.4992px;">1500000000</text>
					<text transform="matrix(1 0 0 1 2949.1589 3931.4946)" style="fill:none; font-family:'ArialMT'; font-size:9.4992px;">2000000000</text>
				</g>
				<line style="fill:none;" x1="3012.33" y1="4094.755" x2="3012.33" y2="3927.933"/>
				<g>
					<g>
						<line style="fill:none;stroke:#E0E0E0;stroke-miterlimit:10;" x1="3012.33" y1="4094.755" x2="3674.223" y2="4094.755"/>
						<line style="fill:none;stroke:#E0E0E0;stroke-miterlimit:10;" x1="3012.33" y1="4053.05" x2="3674.223" y2="4053.05"/>
						<line style="fill:none;stroke:#E0E0E0;stroke-miterlimit:10;" x1="3012.33" y1="4011.344" x2="3674.223" y2="4011.344"/>
						<line style="fill:none;stroke:#E0E0E0;stroke-miterlimit:10;" x1="3012.33" y1="3969.638" x2="3674.223" y2="3969.638"/>
						<line style="fill:none;stroke:#E0E0E0;stroke-miterlimit:10;" x1="3012.33" y1="3927.933" x2="3674.223" y2="3927.933"/>
					</g>
					<g>
					</g>
				</g>
			</g>
			<g>
				<g>
					<g>
						<rect x="3023.913" y="4021.727" style="fill:#85B4D3;" width="59.57" height="69.66"/>
						<rect x="3106.65" y="4006.587" style="fill:#85B4D3;" width="59.57" height="80.344"/>
						<rect x="3189.386" y="4006.129" style="fill:#85B4D3;" width="59.57" height="77.259"/>
						<rect x="3272.123" y="4012.556" style="fill:#85B4D3;" width="59.57" height="65.671"/>
						<rect x="3354.86" y="4005.754" style="fill:#85B4D3;" width="59.57" height="46.998"/>
						<rect x="3437.597" y="4024.326" style="fill:#85B4D3;" width="59.57" height="22.001"/>
						<rect x="3520.333" y="4002.563" style="fill:#85B4D3;" width="59.57" height="19.137"/>
						<rect x="3603.07" y="3968.011" style="fill:#85B4D3;" width="59.57" height="15.031"/>
					</g>
				</g>
				<g>
					<g>
						<rect x="3023.913" y="4091.387" style="fill:#004E87;" width="59.57" height="3.368"/>
						<rect x="3106.65" y="4086.931" style="fill:#004E87;" width="59.57" height="7.824"/>
						<rect x="3189.386" y="4083.387" style="fill:#004E87;" width="59.57" height="11.368"/>
						<rect x="3272.123" y="4078.227" style="fill:#004E87;" width="59.57" height="16.528"/>
						<rect x="3354.86" y="4052.751" style="fill:#004E87;" width="59.57" height="42.004"/>
						<rect x="3437.597" y="4046.327" style="fill:#004E87;" width="59.57" height="48.428"/>
						<rect x="3520.333" y="4021.7" style="fill:#004E87;" width="59.57" height="73.055"/>
						<rect x="3603.07" y="3983.042" style="fill:#004E87;" width="59.57" height="111.713"/>
					</g>
				</g>
			</g>
			<g>
				<g>
				</g>
				<g>
				</g>
			</g>
		</g>
		<line style="fill:none;stroke:#000000;stroke-miterlimit:10;" x1="2972.451" y1="4094.755" x2="3674.223" y2="4094.755"/>
		<g>
			<text transform="matrix(1 0 0 1 3035.4792 4110.3169)" style="font-family:'ArialMT'; font-size:13px;">1978</text>
		</g>
		<g>
			<text transform="matrix(1 0 0 1 3120.1589 4110.3169)" style="font-family:'ArialMT'; font-size:13px;">1982</text>
		</g>
		<g>
			<text transform="matrix(1 0 0 1 3203.4294 4110.3169)" style="font-family:'ArialMT'; font-size:13px;">1987</text>
		</g>
		<g>
			<text transform="matrix(1 0 0 1 3286.7009 4110.3169)" style="font-family:'ArialMT'; font-size:13px;">1992</text>
		</g>
		<g>
			<text transform="matrix(1 0 0 1 3369.9734 4110.3169)" style="font-family:'ArialMT'; font-size:13px;">1997</text>
		</g>
		<g>
			<text transform="matrix(1 0 0 1 3453.2439 4110.3169)" style="font-family:'ArialMT'; font-size:13px;">2002</text>
		</g>
		<g>
			<text transform="matrix(1 0 0 1 3536.5154 4110.3169)" style="font-family:'ArialMT'; font-size:13px;">2007</text>
		</g>
		<g>
			<text transform="matrix(1 0 0 1 3618.3787 4110.3169)" style="font-family:'ArialMT'; font-size:13px;">2012</text>
		</g>
	</g>
	<rect x="2971.883" y="3894.301" style="fill:#004E87;stroke:#E0E0E0;stroke-miterlimit:10;" width="11" height="11"/>
	<g>
		<text transform="matrix(1 0 0 1 2987.7917 3905.6372)" style="font-family:'ArialMT'; font-size:16px;">Farms with 5,000+ hogs</text>
	</g>
	<rect x="3173.223" y="3894.301" style="fill:#85B4D3;stroke:#E0E0E0;stroke-miterlimit:10;" width="11" height="11"/>
	<g>
		<text transform="matrix(1 0 0 1 3189.1326 3905.6372)" style="font-family:'ArialMT'; font-size:16px;">All other farms</text>
	</g>
	<line style="fill:none;stroke:#231F20;stroke-width:2;" x1="3631.9" y1="3975.132" x2="3631.9" y2="3935.132"/>
	<g>
		<rect x="3517.721" y="3872.777" style="fill:#FFFFFF;stroke:#231F20;" width="154.504" height="68.258"/>
		<g>
			<text transform="matrix(1 0 0 1 3527.6475 3909.6277)" style="fill:#231F20; font-family:'Arial-BoldMT'; font-size:16px;">$180M</text>
			<text transform="matrix(1 0 0 1 3533.4326 3928.1277)" style="fill:#231F20; font-family:'Arial-ItalicMT'; font-size:16px;">-78%</text>
			<rect x="3527.859" y="3885.097" style="fill:#85B4D3;" width="48.5" height="4.535"/>
		</g>
		<g>
			<text transform="matrix(1 0 0 1 3605.5518 3909.6274)" style="fill:#231F20; font-family:'Arial-BoldMT'; font-size:16px;">$1.3B</text>
			<g>
				<text transform="matrix(1 0 0 1 3595.0947 3928.1274)" style="fill:#231F20; font-family:'Arial-ItalicMT'; font-size:16px;">+3,150%</text>
			</g>
			<rect x="3593.65" y="3885.097" style="fill:#004E87;" width="66.5" height="4.535"/>
		</g>
	</g>
	<g>
		<text transform="matrix(1 0 0 1 2971.8833 4139.0493)" style="font-family:'ArialMT'; font-size:13px;">SOURCE: U.S. Dept. of Agriculture</text>
	</g>
	<g>
		<text transform="matrix(1 0 0 1 3616.4465 4138.4282)" style="font-family:'Arial-BoldMT'; font-size:13px;">TRIBUNE</text>
	</g>
	<rect x="2971.547" y="3221.537" style="fill:none;" width="577.343" height="27.537"/>
	<text transform="matrix(1 0 0 1 2971.5464 3240.438)" style="fill:#231F20; font-family:'Georgia-Bold'; font-size:25px;">Hogs now a $1.5B business in Illinois</text>
	<g>
		<rect x="2971.547" y="3258.449" style="fill:none;" width="576.679" height="75.465"/>
		<text transform="matrix(1 0 0 1 2971.5469 3272.0571)"><tspan x="0" y="0" style="font-family:'Georgia'; font-size:18px;">Lorem ipsum dolor sit amet, consectetur adipisicing elit, sed do eiusmod </tspan><tspan x="0" y="27" style="font-family:'Georgia'; font-size:18px;">tempor incididunt ut labore et dolore magna aliqua. Ut enim ad minim </tspan><tspan x="0" y="54" style="font-family:'Georgia'; font-size:18px;">veniam, quis nostrud exercitation ullamco laboris nisi ut aliquip ex ea </tspan></text>
	</g>
	<g>
		<g>
			<line style="fill:none;" x1="3012.185" y1="3576.476" x2="3550.223" y2="3576.476"/>
			<g>
				<g>
					<line style="fill:none;" x1="3012.185" y1="3576.476" x2="3012.185" y2="3572.305"/>
					<line style="fill:none;" x1="3079.44" y1="3576.476" x2="3079.44" y2="3572.305"/>
					<line style="fill:none;" x1="3146.695" y1="3576.476" x2="3146.695" y2="3572.305"/>
					<line style="fill:none;" x1="3213.95" y1="3576.476" x2="3213.95" y2="3572.305"/>
					<line style="fill:none;" x1="3281.204" y1="3576.476" x2="3281.204" y2="3572.305"/>
					<line style="fill:none;" x1="3348.459" y1="3576.476" x2="3348.459" y2="3572.305"/>
					<line style="fill:none;" x1="3415.714" y1="3576.476" x2="3415.714" y2="3572.305"/>
					<line style="fill:none;" x1="3482.969" y1="3576.476" x2="3482.969" y2="3572.305"/>
					<line style="fill:none;" x1="3550.223" y1="3576.476" x2="3550.223" y2="3572.305"/>
				</g>
				<g>
				</g>
			</g>
		</g>
		<g>
			<g>
				<text transform="matrix(1 0 0 1 2998.4958 3580.0378)" style="fill:none; font-family:'ArialMT'; font-size:9.4992px;">0</text>
				<text transform="matrix(1 0 0 1 2956.2322 3538.3318)" style="fill:none; font-family:'ArialMT'; font-size:9.4992px;">500000000</text>
				<text transform="matrix(1 0 0 1 2950.949 3496.6267)" style="fill:none; font-family:'ArialMT'; font-size:9.4992px;">1000000000</text>
				<text transform="matrix(1 0 0 1 2950.949 3454.9207)" style="fill:none; font-family:'ArialMT'; font-size:9.4992px;">1500000000</text>
				<text transform="matrix(1 0 0 1 2950.949 3413.2156)" style="fill:none; font-family:'ArialMT'; font-size:9.4992px;">2000000000</text>
			</g>
			<line style="fill:none;" x1="3012.185" y1="3576.476" x2="3012.185" y2="3409.654"/>
			<g>
				<g>
					<line style="fill:none;stroke:#E0E0E0;stroke-miterlimit:10;" x1="3012.185" y1="3576.476" x2="3550.223" y2="3576.476"/>
					<line style="fill:none;stroke:#E0E0E0;stroke-miterlimit:10;" x1="3012.185" y1="3534.77" x2="3550.223" y2="3534.77"/>
					<line style="fill:none;stroke:#E0E0E0;stroke-miterlimit:10;" x1="3012.185" y1="3493.065" x2="3550.223" y2="3493.065"/>
					<line style="fill:none;stroke:#E0E0E0;stroke-miterlimit:10;" x1="3012.185" y1="3451.359" x2="3550.223" y2="3451.359"/>
					<line style="fill:none;stroke:#E0E0E0;stroke-miterlimit:10;" x1="3012.185" y1="3409.654" x2="3550.223" y2="3409.654"/>
				</g>
				<g>
				</g>
			</g>
		</g>
		<g>
			<g>
				<g>
					<rect x="3021.601" y="3503.447" style="fill:#85B4D3;" width="48.423" height="69.66"/>
					<rect x="3088.856" y="3488.308" style="fill:#85B4D3;" width="48.423" height="80.344"/>
					<rect x="3156.111" y="3487.85" style="fill:#85B4D3;" width="48.423" height="77.259"/>
					<rect x="3223.365" y="3494.277" style="fill:#85B4D3;" width="48.423" height="65.671"/>
					<rect x="3290.62" y="3487.475" style="fill:#85B4D3;" width="48.423" height="46.998"/>
					<rect x="3357.875" y="3506.047" style="fill:#85B4D3;" width="48.423" height="22.001"/>
					<rect x="3425.13" y="3484.284" style="fill:#85B4D3;" width="48.423" height="19.137"/>
					<rect x="3492.384" y="3449.731" style="fill:#85B4D3;" width="48.423" height="15.031"/>
				</g>
			</g>
			<g>
				<g>
					<rect x="3021.601" y="3573.108" style="fill:#004E87;" width="48.423" height="3.368"/>
					<rect x="3088.856" y="3568.652" style="fill:#004E87;" width="48.423" height="7.824"/>
					<rect x="3156.111" y="3565.108" style="fill:#004E87;" width="48.423" height="11.368"/>
					<rect x="3223.365" y="3559.948" style="fill:#004E87;" width="48.423" height="16.528"/>
					<rect x="3290.62" y="3534.472" style="fill:#004E87;" width="48.423" height="42.004"/>
					<rect x="3357.875" y="3528.048" style="fill:#004E87;" width="48.423" height="48.428"/>
					<rect x="3425.13" y="3503.421" style="fill:#004E87;" width="48.423" height="73.055"/>
					<rect x="3492.384" y="3464.763" style="fill:#004E87;" width="48.423" height="111.713"/>
				</g>
			</g>
		</g>
		<g>
			<g>
			</g>
			<g>
			</g>
		</g>
	</g>
	<line style="fill:none;stroke:#000000;stroke-miterlimit:10;" x1="2971.883" y1="3576.476" x2="3550.223" y2="3576.476"/>
	<g>
		<text transform="matrix(1 0 0 1 3031.2966 3591.0374)" style="font-family:'ArialMT'; font-size:13px;">1978</text>
	</g>
	<g>
		<text transform="matrix(1 0 0 1 3099.6699 3591.0378)" style="font-family:'ArialMT'; font-size:13px;">1982</text>
	</g>
	<g>
		<text transform="matrix(1 0 0 1 3166.9307 3591.0378)" style="font-family:'ArialMT'; font-size:13px;">1987</text>
	</g>
	<g>
		<text transform="matrix(1 0 0 1 3234.1917 3591.0378)" style="font-family:'ArialMT'; font-size:13px;">1992</text>
	</g>
	<g>
		<text transform="matrix(1 0 0 1 3301.4526 3591.0378)" style="font-family:'ArialMT'; font-size:13px;">1997</text>
	</g>
	<g>
		<text transform="matrix(1 0 0 1 3368.7134 3591.0378)" style="font-family:'ArialMT'; font-size:13px;">2002</text>
	</g>
	<g>
		<text transform="matrix(1 0 0 1 3435.9744 3591.0378)" style="font-family:'ArialMT'; font-size:13px;">2007</text>
	</g>
	<g>
		<text transform="matrix(1 0 0 1 3502.1228 3591.0376)" style="font-family:'ArialMT'; font-size:13px;">2012</text>
	</g>
	<g>
		<g>
			<rect x="2971.547" y="3348.818" style="fill:none;" width="487.879" height="17.816"/>
			<text transform="matrix(1 0 0 1 2971.5474 3362.4216)" style="font-family:'Arial-BoldMT'; font-size:19px;">Value of hogs sold in Illinois</text>
		</g>
		<rect x="2971.883" y="3376.022" style="fill:#004E87;stroke:#E0E0E0;stroke-miterlimit:10;" width="11" height="11"/>
		<g>
			<text transform="matrix(1 0 0 1 2987.7917 3387.3579)" style="font-family:'ArialMT'; font-size:16px;">XXXXX</text>
		</g>
		<rect x="3065.853" y="3376.022" style="fill:#85B4D3;stroke:#E0E0E0;stroke-miterlimit:10;" width="11" height="11"/>
		<g>
			<text transform="matrix(1 0 0 1 3081.7617 3387.3579)" style="font-family:'ArialMT'; font-size:16px;">XXXX</text>
		</g>
	</g>
	<line style="fill:none;stroke:#231F20;stroke-width:2;" x1="3506.567" y1="3456.853" x2="3506.567" y2="3416.853"/>
	<g>
		<rect x="3392.388" y="3354.498" style="fill:#FFFFFF;stroke:#231F20;" width="154.504" height="68.258"/>
		<g>
			<text transform="matrix(1 0 0 1 3402.3145 3391.3486)" style="fill:#231F20; font-family:'Arial-BoldMT'; font-size:16px;">$180M</text>
			<text transform="matrix(1 0 0 1 3408.0996 3409.8486)" style="fill:#231F20; font-family:'Arial-ItalicMT'; font-size:16px;">-78%</text>
			<rect x="3402.526" y="3366.818" style="fill:#85B4D3;" width="48.5" height="4.535"/>
		</g>
		<g>
			<text transform="matrix(1 0 0 1 3480.2188 3391.3481)" style="fill:#231F20; font-family:'Arial-BoldMT'; font-size:16px;">$1.3B</text>
			<g>
				<text transform="matrix(1 0 0 1 3469.7617 3409.8481)" style="fill:#231F20; font-family:'Arial-ItalicMT'; font-size:16px;">+3,150%</text>
			</g>
			<rect x="3468.317" y="3366.818" style="fill:#004E87;" width="66.5" height="4.535"/>
		</g>
	</g>
	<g>
		<text transform="matrix(1 0 0 1 2971.8833 3620.7703)" style="font-family:'ArialMT'; font-size:13px;">SOURCE: U.S. Dept. of Agriculture</text>
	</g>
	<g>
		<text transform="matrix(1 0 0 1 3492.4468 3620.1492)" style="font-family:'Arial-BoldMT'; font-size:13px;">TRIBUNE</text>
	</g>
	<g>
		<text transform="matrix(1 0 0 1 2972.0486 3415.533)"><tspan x="0" y="0" style="font-family:'ArialMT'; font-size:16px;">$2.0B</tspan><tspan x="0" y="41.5" style="font-family:'ArialMT'; font-size:16px;">$1.5B</tspan><tspan x="0" y="83" style="font-family:'ArialMT'; font-size:16px;">$1.0B</tspan><tspan x="0" y="124.5" style="font-family:'ArialMT'; font-size:16px;">$0.5B</tspan></text>
	</g>
	<g>
		<rect x="2971.547" y="2711.945" style="fill:none;" width="489.464" height="63.184"/>
		<text transform="matrix(1 0 0 1 2971.5469 2723.2839)"><tspan x="0" y="0" style="font-family:'Georgia'; font-size:15px;">Lorem ipsum dolor sit amet, consectetur adipisicing elit, sed do eiusmod </tspan><tspan x="0" y="24" style="font-family:'Georgia'; font-size:15px;">tempor incididunt ut labore et dolore magna aliqua. Ut enim ad minim </tspan><tspan x="0" y="48" style="font-family:'Georgia'; font-size:15px;">veniam, quis nostrud exercitation ullamco laboris nisi ut aliquip ex ea </tspan></text>
	</g>
	<g>
		<g>
			<line style="fill:none;" x1="3011.861" y1="3029.971" x2="3461.01" y2="3029.971"/>
			<g>
				<g>
					<line style="fill:none;" x1="3011.861" y1="3029.971" x2="3011.861" y2="3025.801"/>
					<line style="fill:none;" x1="3068.005" y1="3029.971" x2="3068.005" y2="3025.801"/>
					<line style="fill:none;" x1="3124.149" y1="3029.971" x2="3124.149" y2="3025.801"/>
					<line style="fill:none;" x1="3180.292" y1="3029.971" x2="3180.292" y2="3025.801"/>
					<line style="fill:none;" x1="3236.436" y1="3029.971" x2="3236.436" y2="3025.801"/>
					<line style="fill:none;" x1="3292.58" y1="3029.971" x2="3292.58" y2="3025.801"/>
					<line style="fill:none;" x1="3348.723" y1="3029.971" x2="3348.723" y2="3025.801"/>
					<line style="fill:none;" x1="3404.867" y1="3029.971" x2="3404.867" y2="3025.801"/>
					<line style="fill:none;" x1="3461.01" y1="3029.971" x2="3461.01" y2="3025.801"/>
				</g>
				<g>
				</g>
			</g>
		</g>
		<g>
			<g>
				<text transform="matrix(0.8348 0 0 1 3000.4343 3033.5332)" style="fill:none; font-family:'ArialMT'; font-size:9.4992px;">0</text>
				<text transform="matrix(0.8348 0 0 1 2950.5251 2991.8271)" style="fill:none; font-family:'ArialMT'; font-size:13px;">500000000</text>
				<text transform="matrix(0.8348 0 0 1 2944.489 2950.1221)" style="fill:none; font-family:'ArialMT'; font-size:13px;">1000000000</text>
				<text transform="matrix(0.8348 0 0 1 2944.489 2908.416)" style="fill:none; font-family:'ArialMT'; font-size:13px;">1500000000</text>
				<text transform="matrix(0.8348 0 0 1 2944.489 2866.7109)" style="fill:none; font-family:'ArialMT'; font-size:13px;">2000000000</text>
			</g>
			<line style="fill:none;" x1="3011.861" y1="3029.971" x2="3011.861" y2="2863.149"/>
			<g>
				<g>
					<line style="fill:none;stroke:#E0E0E0;stroke-miterlimit:10;" x1="3011.861" y1="3029.971" x2="3461.01" y2="3029.971"/>
					<line style="fill:none;stroke:#E0E0E0;stroke-miterlimit:10;" x1="3011.861" y1="2988.266" x2="3461.01" y2="2988.266"/>
					<line style="fill:none;stroke:#E0E0E0;stroke-miterlimit:10;" x1="3011.861" y1="2946.56" x2="3461.01" y2="2946.56"/>
					<line style="fill:none;stroke:#E0E0E0;stroke-miterlimit:10;" x1="3011.861" y1="2904.855" x2="3461.01" y2="2904.855"/>
					<line style="fill:none;stroke:#E0E0E0;stroke-miterlimit:10;" x1="3011.861" y1="2863.149" x2="3461.01" y2="2863.149"/>
				</g>
				<g>
				</g>
			</g>
		</g>
		<g>
			<g>
				<g>
					<rect x="3019.721" y="2956.943" style="fill:#85B4D3;" width="40.423" height="69.66"/>
					<rect x="3075.865" y="2941.803" style="fill:#85B4D3;" width="40.423" height="80.344"/>
					<rect x="3132.009" y="2941.345" style="fill:#85B4D3;" width="40.423" height="77.259"/>
					<rect x="3188.152" y="2947.772" style="fill:#85B4D3;" width="40.423" height="65.671"/>
					<rect x="3244.296" y="2940.97" style="fill:#85B4D3;" width="40.423" height="46.998"/>
					<rect x="3300.44" y="2959.542" style="fill:#85B4D3;" width="40.423" height="22.001"/>
					<rect x="3356.583" y="2937.78" style="fill:#85B4D3;" width="40.423" height="19.137"/>
					<rect x="3412.727" y="2903.227" style="fill:#85B4D3;" width="40.423" height="15.031"/>
				</g>
			</g>
			<g>
				<g>
					<rect x="3019.721" y="3026.603" style="fill:#004E87;" width="40.423" height="3.368"/>
					<rect x="3075.865" y="3022.147" style="fill:#004E87;" width="40.423" height="7.824"/>
					<rect x="3132.009" y="3018.604" style="fill:#004E87;" width="40.423" height="11.368"/>
					<rect x="3188.152" y="3013.443" style="fill:#004E87;" width="40.423" height="16.528"/>
					<rect x="3244.296" y="2987.968" style="fill:#004E87;" width="40.423" height="42.004"/>
					<rect x="3300.44" y="2981.544" style="fill:#004E87;" width="40.423" height="48.428"/>
					<rect x="3356.583" y="2956.916" style="fill:#004E87;" width="40.423" height="73.055"/>
					<rect x="3412.727" y="2918.258" style="fill:#004E87;" width="40.423" height="111.713"/>
				</g>
			</g>
		</g>
		<g>
			<g>
			</g>
			<g>
			</g>
		</g>
	</g>
	<line style="fill:none;stroke:#000000;stroke-miterlimit:10;" x1="2971.883" y1="3029.971" x2="3461.01" y2="3029.971"/>
	<g>
		<text transform="matrix(1 0 0 1 3024.2966 3044.5327)" style="font-family:'ArialMT'; font-size:13px;">1978</text>
	</g>
	<g>
		<text transform="matrix(1 0 0 1 3081.7615 3044.5332)" style="font-family:'ArialMT'; font-size:13px;">1982</text>
	</g>
	<g>
		<text transform="matrix(1 0 0 1 3138.114 3044.5332)" style="font-family:'ArialMT'; font-size:13px;">1987</text>
	</g>
	<g>
		<text transform="matrix(1 0 0 1 3194.4666 3044.5332)" style="font-family:'ArialMT'; font-size:13px;">1992</text>
	</g>
	<g>
		<text transform="matrix(1 0 0 1 3250.8181 3044.5332)" style="font-family:'ArialMT'; font-size:13px;">1997</text>
	</g>
	<g>
		<text transform="matrix(1 0 0 1 3307.1711 3044.5332)" style="font-family:'ArialMT'; font-size:13px;">2002</text>
	</g>
	<g>
		<text transform="matrix(1 0 0 1 3363.5237 3044.5332)" style="font-family:'ArialMT'; font-size:13px;">2007</text>
	</g>
	<g>
		<text transform="matrix(1 0 0 1 3418.7629 3044.533)" style="font-family:'ArialMT'; font-size:13px;">2012</text>
	</g>
	<rect x="2971.883" y="2829.518" style="fill:#004E87;stroke:#E0E0E0;stroke-miterlimit:10;" width="11" height="11"/>
	<g>
		<text transform="matrix(1 0 0 1 2987.7917 2840.8535)" style="font-family:'ArialMT'; font-size:14px;">Farms with 5,000+ hogs</text>
	</g>
	<rect x="3153.223" y="2829.518" style="fill:#85B4D3;stroke:#E0E0E0;stroke-miterlimit:10;" width="11" height="11"/>
	<g>
		<text transform="matrix(1 0 0 1 3169.1326 2840.8535)" style="font-family:'ArialMT'; font-size:14px;">All other farms</text>
	</g>
	<line style="fill:none;stroke:#231F20;stroke-width:2;" x1="3433.223" y1="2910.348" x2="3433.223" y2="2870.348"/>
	<g>
		<text transform="matrix(1 0 0 1 2971.8833 3074.2656)" style="font-family:'ArialMT'; font-size:13px;">SOURCE: U.S. Dept. of Agriculture</text>
	</g>
	<g>
		<text transform="matrix(1 0 0 1 3403.2339 3073.6445)" style="font-family:'Arial-BoldMT'; font-size:13px;">TRIBUNE</text>
	</g>
	<g>
		<text transform="matrix(1 0 0 1 2970.8884 2868.0283)"><tspan x="0" y="0" style="font-family:'ArialMT'; font-size:13px;">$2.0B</tspan><tspan x="0" y="41.5" style="font-family:'ArialMT'; font-size:13px;">$1.5B</tspan><tspan x="0" y="83" style="font-family:'ArialMT'; font-size:13px;">$1.0B</tspan><tspan x="0" y="124.5" style="font-family:'ArialMT'; font-size:13px;">$0.5B</tspan></text>
	</g>
	<rect x="2971.547" y="2135.405" style="fill:none;" width="280.677" height="90.794"/>
	<text transform="matrix(1 0 0 1 2971.5464 2154.3049)"><tspan x="0" y="0" style="fill:#231F20; font-family:'Georgia-Bold'; font-size:25px;">Illinois hogs have </tspan><tspan x="0" y="32" style="fill:#231F20; font-family:'Georgia-Bold'; font-size:25px;">grown into a $1.5B </tspan><tspan x="0" y="64" style="fill:#231F20; font-family:'Georgia-Bold'; font-size:25px;">business in Illinois</tspan></text>
	<g>
		<rect x="2971.547" y="2238.685" style="fill:none;" width="277.879" height="17.816"/>
		<text transform="matrix(1 0 0 1 2971.5464 2250.8574)" style="font-family:'Arial-BoldMT'; font-size:17px;">Value of hogs sold in Illinois</text>
	</g>
	<g>
		<g>
			<line style="fill:none;" x1="3011.411" y1="2500.343" x2="3252.223" y2="2500.343"/>
			<g>
				<g>
					<line style="fill:none;" x1="3011.411" y1="2500.343" x2="3011.411" y2="2496.631"/>
					<line style="fill:none;" x1="3041.512" y1="2500.343" x2="3041.512" y2="2496.631"/>
					<line style="fill:none;" x1="3071.614" y1="2500.343" x2="3071.614" y2="2496.631"/>
					<line style="fill:none;" x1="3101.716" y1="2500.343" x2="3101.716" y2="2496.631"/>
					<line style="fill:none;" x1="3131.817" y1="2500.343" x2="3131.817" y2="2496.631"/>
					<line style="fill:none;" x1="3161.919" y1="2500.343" x2="3161.919" y2="2496.631"/>
					<line style="fill:none;" x1="3192.02" y1="2500.343" x2="3192.02" y2="2496.631"/>
					<line style="fill:none;" x1="3222.122" y1="2500.343" x2="3222.122" y2="2496.631"/>
					<line style="fill:none;" x1="3252.223" y1="2500.343" x2="3252.223" y2="2496.631"/>
				</g>
				<g>
				</g>
			</g>
		</g>
		<g>
			<g>
				<text transform="matrix(1.1235 0 0 1 3002.366 2503.5142)" style="fill:none; font-family:'ArialMT'; font-size:8.4554px;">0</text>
				<text transform="matrix(1.1235 0 0 1 2960.1023 2466.3906)" style="fill:none; font-family:'ArialMT'; font-size:8.4554px;">500000000</text>
				<text transform="matrix(1.1235 0 0 1 2954.8191 2429.2681)" style="fill:none; font-family:'ArialMT'; font-size:8.4554px;">1000000000</text>
				<text transform="matrix(1.1235 0 0 1 2954.8191 2392.145)" style="fill:none; font-family:'ArialMT'; font-size:8.4554px;">1500000000</text>
				<text transform="matrix(1.1235 0 0 1 2954.8191 2355.0225)" style="fill:none; font-family:'ArialMT'; font-size:8.4554px;">2000000000</text>
			</g>
			<line style="fill:none;" x1="3011.411" y1="2500.343" x2="3011.411" y2="2351.852"/>
			<g>
				<g>
					<line style="fill:none;stroke:#E0E0E0;stroke-miterlimit:10;" x1="3011.411" y1="2500.343" x2="3252.223" y2="2500.343"/>
					<line style="fill:none;stroke:#E0E0E0;stroke-miterlimit:10;" x1="3011.411" y1="2463.22" x2="3252.223" y2="2463.22"/>
					<line style="fill:none;stroke:#E0E0E0;stroke-miterlimit:10;" x1="3011.411" y1="2426.097" x2="3252.223" y2="2426.097"/>
					<line style="fill:none;stroke:#E0E0E0;stroke-miterlimit:10;" x1="3011.411" y1="2388.975" x2="3252.223" y2="2388.975"/>
					<line style="fill:none;stroke:#E0E0E0;stroke-miterlimit:10;" x1="3011.411" y1="2351.852" x2="3252.223" y2="2351.852"/>
				</g>
				<g>
				</g>
			</g>
		</g>
		<g>
			<g>
				<g>
					<rect x="3015.625" y="2435.339" style="fill:#85B4D3;" width="21.673" height="62.006"/>
					<rect x="3045.727" y="2421.863" style="fill:#85B4D3;" width="21.673" height="71.516"/>
					<rect x="3075.828" y="2421.455" style="fill:#85B4D3;" width="21.673" height="68.77"/>
					<rect x="3105.93" y="2427.176" style="fill:#85B4D3;" width="21.673" height="58.455"/>
					<rect x="3136.031" y="2421.122" style="fill:#85B4D3;" width="21.673" height="41.833"/>
					<rect x="3166.133" y="2437.653" style="fill:#85B4D3;" width="21.673" height="19.584"/>
					<rect x="3196.235" y="2418.281" style="fill:#85B4D3;" width="21.673" height="17.034"/>
					<rect x="3226.336" y="2387.526" style="fill:#85B4D3;" width="21.673" height="13.38"/>
				</g>
			</g>
			<g>
				<g>
					<rect x="3015.625" y="2497.345" style="fill:#004E87;" width="21.673" height="2.998"/>
					<rect x="3045.727" y="2493.379" style="fill:#004E87;" width="21.673" height="6.964"/>
					<rect x="3075.828" y="2490.225" style="fill:#004E87;" width="21.673" height="10.118"/>
					<rect x="3105.93" y="2485.631" style="fill:#004E87;" width="21.673" height="14.712"/>
					<rect x="3136.031" y="2462.955" style="fill:#004E87;" width="21.673" height="37.388"/>
					<rect x="3166.133" y="2457.237" style="fill:#004E87;" width="21.673" height="43.106"/>
					<rect x="3196.235" y="2435.316" style="fill:#004E87;" width="21.673" height="65.028"/>
					<rect x="3226.336" y="2400.906" style="fill:#004E87;" width="21.673" height="99.438"/>
				</g>
			</g>
		</g>
		<g>
			<g>
			</g>
			<g>
			</g>
		</g>
	</g>
	<line style="fill:none;stroke:#000000;stroke-miterlimit:10;" x1="2989.977" y1="2500.343" x2="3252.223" y2="2500.343"/>
	<g>
		<text transform="matrix(1 0 0 1 3011.3708 2513.9048)" style="font-family:'ArialMT'; font-size:13px;">1978</text>
	</g>
	<g>
		<text transform="matrix(1 0 0 1 3047.2275 2513.9053)" style="font-family:'ArialMT'; font-size:13px;">’82</text>
	</g>
	<g>
		<text transform="matrix(1 0 0 1 3077.2983 2513.9053)" style="font-family:'ArialMT'; font-size:13px;">’87</text>
	</g>
	<g>
		<text transform="matrix(1 0 0 1 3107.3689 2513.9053)" style="font-family:'ArialMT'; font-size:13px;">’92</text>
	</g>
	<g>
		<text transform="matrix(1 0 0 1 3137.4395 2513.9053)" style="font-family:'ArialMT'; font-size:13px;">’97</text>
	</g>
	<g>
		<text transform="matrix(1 0 0 1 3161.7239 2513.9053)" style="font-family:'ArialMT'; font-size:13px;">2002</text>
	</g>
	<g>
		<text transform="matrix(1 0 0 1 3197.5806 2513.9053)" style="font-family:'ArialMT'; font-size:13px;">’07</text>
	</g>
	<g>
		<text transform="matrix(1 0 0 1 3227.6511 2513.9048)" style="font-family:'ArialMT'; font-size:13px;">’12</text>
	</g>
	<rect x="2971.883" y="2264.889" style="fill:#004E87;stroke:#E0E0E0;stroke-miterlimit:10;" width="11" height="11"/>
	<g>
		<text transform="matrix(1 0 0 1 2987.7917 2276.2253)" style="font-family:'ArialMT'; font-size:14px;">Farms with 5,000+ hogs</text>
	</g>
	<rect x="3145.223" y="2264.889" style="fill:#85B4D3;stroke:#E0E0E0;stroke-miterlimit:10;" width="11" height="11"/>
	<g>
		<text transform="matrix(1 0 0 1 3161.1326 2276.2253)" style="font-family:'ArialMT'; font-size:14px;">All other farms</text>
	</g>
	<g>
		<line style="fill:none;stroke:#231F20;stroke-width:2;" x1="3237.581" y1="2393.227" x2="3237.581" y2="2360.719"/>
		<g>
			<rect x="3095.402" y="2298.363" style="fill:#FFFFFF;stroke:#231F20;" width="154.504" height="68.258"/>
			<g>
				<text transform="matrix(1 0 0 1 3105.3284 2335.2144)" style="fill:#231F20; font-family:'Arial-BoldMT'; font-size:16px;">$180M</text>
				<text transform="matrix(1 0 0 1 3111.1135 2353.7144)" style="fill:#231F20; font-family:'Arial-ItalicMT'; font-size:16px;">-78%</text>
				<rect x="3105.539" y="2310.684" style="fill:#85B4D3;" width="48.5" height="4.535"/>
			</g>
			<g>
				<text transform="matrix(1 0 0 1 3183.2324 2335.2141)" style="fill:#231F20; font-family:'Arial-BoldMT'; font-size:16px;">$1.3B</text>
				<g>
					<text transform="matrix(1 0 0 1 3172.7754 2353.7141)" style="fill:#231F20; font-family:'Arial-ItalicMT'; font-size:16px;">+3,150%</text>
				</g>
				<rect x="3171.331" y="2310.684" style="fill:#004E87;" width="66.5" height="4.535"/>
			</g>
		</g>
	</g>
	<g>
		<text transform="matrix(1 0 0 1 2971.8833 2532.6375)" style="font-family:'ArialMT'; font-size:13px;">SOURCE: U.S. Dept. of Agriculture</text>
	</g>
	<g>
		<text transform="matrix(1 0 0 1 3194.4468 2532.0164)" style="font-family:'Arial-BoldMT'; font-size:13px;">TRIBUNE</text>
	</g>
	<g>
		<text transform="matrix(1 0 0 1 2973.6843 2356.4004)"><tspan x="0" y="0" style="font-family:'ArialMT'; font-size:13px;">$2.0B</tspan><tspan x="0" y="37.5" style="font-family:'ArialMT'; font-size:13px;">$1.5B</tspan><tspan x="0" y="75" style="font-family:'ArialMT'; font-size:13px;">$1.0B</tspan><tspan x="0" y="112.5" style="font-family:'ArialMT'; font-size:13px;">$0.5B</tspan></text>
	</g>
	<rect x="3001.223" y="3915.799" style="fill:#FFFFFF;" width="14.638" height="151.025"/>
	<g>
		<text transform="matrix(1 0 0 1 2971.0486 3932.6982)"><tspan x="0" y="0" style="font-family:'ArialMT'; font-size:16px;">$2.0B</tspan><tspan x="0" y="41.5" style="font-family:'ArialMT'; font-size:16px;">$1.5B</tspan><tspan x="0" y="83" style="font-family:'ArialMT'; font-size:16px;">$1.0B</tspan><tspan x="0" y="124.5" style="font-family:'ArialMT'; font-size:16px;">$0.5B</tspan></text>
	</g>
	<g>
		<g>
			<path style="fill:none;stroke:#C11B17;" d="M3015.9,2339.472c20.933-13.168,7.902-26.268,7.902-28.789"/>
			<g>
				<polygon style="fill:#C11B17;" points="3018.867,2342.265 3010.89,2342.284 3014.861,2335.365 				"/>
			</g>
		</g>
	</g>
	<g>
		<rect x="3304.827" y="2818.354" style="fill:#FFFFFF;stroke:#231F20;" width="154.504" height="68.258"/>
		<g>
			<text transform="matrix(1 0 0 1 3314.7529 2855.2048)" style="fill:#231F20; font-family:'Arial-BoldMT'; font-size:16px;">$180M</text>
			<text transform="matrix(1 0 0 1 3320.5381 2873.7048)" style="fill:#231F20; font-family:'Arial-ItalicMT'; font-size:16px;">-78%</text>
			<rect x="3314.964" y="2830.674" style="fill:#85B4D3;" width="48.5" height="4.535"/>
		</g>
		<g>
			<text transform="matrix(1 0 0 1 3392.6572 2855.2043)" style="fill:#231F20; font-family:'Arial-BoldMT'; font-size:16px;">$1.3B</text>
			<g>
				<text transform="matrix(1 0 0 1 3382.2002 2873.7043)" style="fill:#231F20; font-family:'Arial-ItalicMT'; font-size:16px;">+3,150%</text>
			</g>
			<rect x="3380.755" y="2830.674" style="fill:#004E87;" width="66.5" height="4.535"/>
		</g>
	</g>
	<g>
		<g>
			<path style="fill:none;stroke:#C11B17;" d="M3008.84,2915.555c10.928,7.289,38.876,22.443,59.708,3.494"/>
			<g>
				<polygon style="fill:#C11B17;" points="3007.525,2919.441 3004.185,2912.197 3012.129,2912.925 				"/>
			</g>
		</g>
	</g>
	<rect x="3063.547" y="2898.129" style="fill:#FFFFFF;" width="121.343" height="12.219"/>
	<rect x="3027.81" y="-659.871" style="fill:#12182D;" width="127.235" height="135.112"/>
	<rect x="3155.045" y="-659.871" style="fill:#024E87;" width="127.235" height="135.112"/>
	<rect x="3282.28" y="-659.871" style="fill:#7493C1;" width="127.235" height="135.112"/>
	<rect x="3409.515" y="-659.871" style="fill:#85B4D3;" width="127.235" height="135.112"/>
	<rect x="3536.751" y="-659.871" style="fill:#CBDDED;" width="127.235" height="135.112"/>
	<rect x="3027.81" y="-524.759" style="fill:#8C001A;" width="127.235" height="135.112"/>
	<rect x="3155.045" y="-524.759" style="fill:#C11B17;" width="127.235" height="135.112"/>
	<rect x="3282.28" y="-524.759" style="fill:#DE5454;" width="127.235" height="135.112"/>
	<rect x="3409.515" y="-524.759" style="fill:#EDA398;" width="127.235" height="135.112"/>
	<rect x="3536.751" y="-524.759" style="fill:#F7D9D1;" width="127.235" height="135.112"/>
	<rect x="3027.81" y="-389.647" style="fill:#C11B17;" width="127.235" height="135.112"/>
	<rect x="3155.045" y="-389.647" style="fill:#EB964F;" width="127.235" height="135.112"/>
	<rect x="3282.28" y="-389.647" style="fill:#F5F50A;" width="127.235" height="135.112"/>
	<rect x="3409.515" y="-389.647" style="fill:#FFFFC4;" width="127.235" height="135.112"/>
	<rect x="3027.81" y="-254.535" style="fill:#2E652F;" width="127.235" height="135.112"/>
	<rect x="3155.045" y="-254.535" style="fill:#3A7F3B;" width="127.235" height="135.112"/>
	<rect x="3282.28" y="-254.535" style="fill:#4DA84E;" width="127.235" height="135.112"/>
	<rect x="3409.515" y="-254.535" style="fill:#71BE72;" width="127.235" height="135.112"/>
	<rect x="3536.751" y="-254.535" style="fill:#B4DDB5;" width="127.235" height="135.112"/>
	<rect x="3027.81" y="-119.423" style="fill:#F5F50A;" width="127.235" height="135.112"/>
	<rect x="3155.045" y="-119.423" style="fill:#FFFF62;" width="127.235" height="135.112"/>
	<rect x="3282.28" y="-119.423" style="fill:#FFFFC4;" width="127.235" height="135.112"/>
	<rect x="3027.81" y="15.69" style="fill:#D5D94D;" width="127.235" height="135.112"/>
	<rect x="3155.045" y="15.69" style="fill:#7E587E;" width="127.235" height="135.112"/>
	<rect x="3282.28" y="15.69" style="fill:#97ADBA;" width="127.235" height="135.112"/>
	<rect x="3409.515" y="15.69" style="fill:#EFE7DB;" width="127.235" height="135.112"/>
	<rect x="3027.81" y="150.802" style="fill:#222222;" width="127.235" height="135.112"/>
	<rect x="3155.045" y="150.802" style="fill:#888888;" width="127.235" height="135.112"/>
	<rect x="3282.28" y="150.802" style="fill:#AAAAAA;" width="127.235" height="135.112"/>
	<rect x="3409.515" y="150.802" style="fill:#E0E0E0;" width="127.235" height="135.112"/>
	<rect x="3027.81" y="285.914" style="fill:#0B162A;" width="127.235" height="135.112"/>
	<rect x="3155.045" y="285.914" style="fill:#C83803;" width="127.235" height="135.112"/>
	<rect x="3282.28" y="285.914" style="fill:#0E3386;" width="127.235" height="135.112"/>
	<rect x="3409.515" y="285.914" style="fill:#CC3433;" width="127.235" height="135.112"/>
	<rect x="3536.751" y="285.914" style="fill:#2C534F;" width="127.235" height="135.112"/>
	<rect x="3663.986" y="285.914" style="fill:#FFB612;" width="127.235" height="135.112"/>
	<path style="fill:#FFFFFF;" d="M30.913,10.235v3.409h15.341v-3.409H30.913z"/>
	<rect x="36.666" y="31.674" style="fill:#FFFFFF;" width="3.491" height="3.409"/>
	<rect x="36.666" y="40.258" style="fill:#FFFFFF;" width="3.491" height="3.409"/>
	<rect x="30.741" y="35.966" style="fill:#FFFFFF;" width="15.341" height="3.409"/>
	<rect y="23.295" style="fill:#FFFFFF;" width="50" height="3.409"/>
	<rect x="23.295" style="fill:#FFFFFF;" width="3.409" height="50"/>
	<polygon style="fill:#FFFFFF;" points="10.6,3.985 10.6,10.235 4.634,10.235 4.634,13.644 10.6,13.644 10.6,19.326 14.009,19.326 
		14.009,13.644 19.975,13.644 19.975,10.235 14.009,10.235 14.009,3.985 	"/>
	<polygon style="fill:#FFFFFF;" points="8.079,31.025 5.682,33.44 9.89,37.665 5.682,41.874 8.079,44.288 12.305,40.063 
		16.531,44.288 18.928,41.874 14.719,37.665 18.928,33.44 16.531,31.025 12.305,35.251 	"/>
</g>
<g id="ai2html-settings">
	<rect x="-1511.846" y="2175.129" style="fill:none;" width="499" height="462"/>
	<text transform="matrix(1 0 0 1 -1511.8464 2186.4688)"><tspan x="0" y="0" style="fill:#231F20; font-family:'Georgia'; font-size:15px;">ai2html-settings</tspan><tspan x="0" y="22" style="fill:#231F20; font-family:'Georgia'; font-size:15px;">settings_version: 0.61</tspan><tspan x="0" y="44" style="fill:#231F20; font-family:'Georgia'; font-size:15px;">image_format: png</tspan><tspan x="0" y="66" style="fill:#231F20; font-family:'Georgia'; font-size:15px;">responsiveness: fixed</tspan><tspan x="0" y="88" style="fill:#231F20; font-family:'Georgia'; font-size:15px;">output: one-file</tspan><tspan x="0" y="110" style="fill:#231F20; font-family:'Georgia'; font-size:15px;">html_output_path: /ai2html-output/</tspan><tspan x="0" y="132" style="fill:#231F20; font-family:'Georgia'; font-size:15px;">html_output_extension: .html</tspan><tspan x="0" y="154" style="fill:#231F20; font-family:'Georgia'; font-size:15px;">image_output_path: </tspan><tspan x="0" y="176" style="fill:#231F20; font-family:'Georgia'; font-size:15px;">image_source_path: http://{{ ROOT_URL }}/ai/ai2html-output/</tspan><tspan x="0" y="198" style="fill:#231F20; font-family:'Georgia'; font-size:15px;">local_preview_template: </tspan><tspan x="0" y="220" style="fill:#231F20; font-family:'Georgia'; font-size:15px;">png_number_of_colors: 128</tspan><tspan x="0" y="242" style="fill:#231F20; font-family:'Georgia'; font-size:15px;">jpg_quality: 60</tspan><tspan x="0" y="264" style="fill:#231F20; font-family:'Georgia'; font-size:15px;">headline: Ai Graphic Headline</tspan><tspan x="0" y="286" style="fill:#231F20; font-family:'Georgia'; font-size:15px;">leadin: Introductory text here.</tspan><tspan x="0" y="308" style="fill:#231F20; font-family:'Georgia'; font-size:15px;">notes: Notes: Text goes here.</tspan><tspan x="0" y="330" style="fill:#231F20; font-family:'Georgia'; font-size:15px;">sources: Source: Name goes here.</tspan><tspan x="0" y="352" style="fill:#231F20; font-family:'Georgia'; font-size:15px;">credit: By ai2html</tspan></text>
</g>
</svg>
