<?xml version="1.0" encoding="utf-8"?>
<!-- Generator: Adobe Illustrator 21.0.2, SVG Export Plug-In . SVG Version: 6.00 Build 0)  -->
<svg version="1.1" xmlns="http://www.w3.org/2000/svg" xmlns:xlink="http://www.w3.org/1999/xlink" x="0px" y="0px"
	 viewBox="0 0 50 50" style="enable-background:new 0 0 50 50;" xml:space="preserve">
<g id="content">
	<path style="fill:#FFFFFF;" d="M38.159,16.068l-1.888,3.021V44.74c0,1.353-0.527,1.88-1.88,1.88h-8.691h-8.691
		c-1.353,0-1.88-0.527-1.88-1.88V19.089l-1.888-3.021h-2.213l2.221,3.56V44.74c0,2.39,1.371,3.76,3.76,3.76h8.691h8.691
		c2.39,0,3.76-1.371,3.76-3.76V19.627l2.221-3.56H38.159z"/>
	<path style="fill:#FFFFFF;" d="M17.004,20.298V44.74h17.391V20.298H17.004z M32.045,42.86h-3.76v-1.88h3.76V42.86z M32.045,39.099
		h-3.76v-1.88h3.76V39.099z M32.045,35.339h-3.76v-1.88h3.76V35.339z M32.045,31.579h-3.76v-1.88h3.76V31.579z M32.045,27.819h-3.76
		v-1.88h3.76V27.819z M32.045,24.058h-3.76v-1.88h3.76V24.058z"/>
	<circle style="fill:#FFFFFF;" cx="29.46" cy="14.893" r="3.055"/>
	<circle style="fill:#FFFFFF;" cx="30.4" cy="9.253" r="1.175"/>
	<circle style="fill:#FFFFFF;" cx="23.819" cy="14.423" r="1.175"/>
	<circle style="fill:#FFFFFF;" cx="22.409" cy="2.672" r="1.175"/>
	<circle style="fill:#FFFFFF;" cx="21.704" cy="9.958" r="1.88"/>
	<circle style="fill:#FFFFFF;" cx="25.934" cy="7.607" r="1.41"/>
	<circle style="fill:#FFFFFF;" cx="19.119" cy="15.363" r="2.115"/>
</g>
<g id="ai2html-settings">
	<rect x="-1511.846" y="2175.129" style="fill:none;" width="499" height="462"/>
	<text transform="matrix(1 0 0 1 -1511.8464 2186.4688)"><tspan x="0" y="0" style="fill:#231F20; font-family:'Georgia'; font-size:15px;">ai2html-settings</tspan><tspan x="0" y="22" style="fill:#231F20; font-family:'Georgia'; font-size:15px;">settings_version: 0.61</tspan><tspan x="0" y="44" style="fill:#231F20; font-family:'Georgia'; font-size:15px;">image_format: png</tspan><tspan x="0" y="66" style="fill:#231F20; font-family:'Georgia'; font-size:15px;">responsiveness: fixed</tspan><tspan x="0" y="88" style="fill:#231F20; font-family:'Georgia'; font-size:15px;">output: one-file</tspan><tspan x="0" y="110" style="fill:#231F20; font-family:'Georgia'; font-size:15px;">html_output_path: /ai2html-output/</tspan><tspan x="0" y="132" style="fill:#231F20; font-family:'Georgia'; font-size:15px;">html_output_extension: .html</tspan><tspan x="0" y="154" style="fill:#231F20; font-family:'Georgia'; font-size:15px;">image_output_path: </tspan><tspan x="0" y="176" style="fill:#231F20; font-family:'Georgia'; font-size:15px;">image_source_path: http://{{ ROOT_URL }}/ai/ai2html-output/</tspan><tspan x="0" y="198" style="fill:#231F20; font-family:'Georgia'; font-size:15px;">local_preview_template: </tspan><tspan x="0" y="220" style="fill:#231F20; font-family:'Georgia'; font-size:15px;">png_number_of_colors: 128</tspan><tspan x="0" y="242" style="fill:#231F20; font-family:'Georgia'; font-size:15px;">jpg_quality: 60</tspan><tspan x="0" y="264" style="fill:#231F20; font-family:'Georgia'; font-size:15px;">headline: Ai Graphic Headline</tspan><tspan x="0" y="286" style="fill:#231F20; font-family:'Georgia'; font-size:15px;">leadin: Introductory text here.</tspan><tspan x="0" y="308" style="fill:#231F20; font-family:'Georgia'; font-size:15px;">notes: Notes: Text goes here.</tspan><tspan x="0" y="330" style="fill:#231F20; font-family:'Georgia'; font-size:15px;">sources: Source: Name goes here.</tspan><tspan x="0" y="352" style="fill:#231F20; font-family:'Georgia'; font-size:15px;">credit: By ai2html</tspan></text>
</g>
</svg>
